<svg xmlns="http://www.w3.org/2000/svg" xmlns:xlink="http://www.w3.org/1999/xlink" width="400" zoomAndPan="magnify" viewBox="0 0 300 74.999997" height="100" preserveAspectRatio="xMidYMid meet" version="1.0"><defs><g/></defs><g fill="#bc1823" fill-opacity="1"><g transform="translate(-2.376172, 57.353839)"><g><path d="M 23.796875 -34.65625 C 27.628906 -34.65625 30.726562 -33.164062 33.09375 -30.1875 C 35.457031 -27.207031 36.640625 -22.835938 36.640625 -17.078125 C 36.640625 -13.222656 36.082031 -9.976562 34.96875 -7.34375 C 33.851562 -4.71875 32.3125 -2.734375 30.34375 -1.390625 C 28.375 -0.0546875 26.113281 0.609375 23.5625 0.609375 C 21.914062 0.609375 20.503906 0.398438 19.328125 -0.015625 C 18.148438 -0.429688 17.144531 -0.96875 16.3125 -1.625 C 15.476562 -2.289062 14.757812 -3 14.15625 -3.75 L 13.671875 -3.75 C 13.828125 -2.9375 13.945312 -2.101562 14.03125 -1.25 C 14.113281 -0.394531 14.15625 0.4375 14.15625 1.25 L 14.15625 14.96875 L 4.875 14.96875 L 4.875 -34.03125 L 12.421875 -34.03125 L 13.71875 -29.609375 L 14.15625 -29.609375 C 14.757812 -30.523438 15.5 -31.367188 16.375 -32.140625 C 17.25 -32.910156 18.296875 -33.519531 19.515625 -33.96875 C 20.742188 -34.425781 22.171875 -34.65625 23.796875 -34.65625 Z M 20.8125 -27.234375 C 19.1875 -27.234375 17.894531 -26.898438 16.9375 -26.234375 C 15.988281 -25.566406 15.296875 -24.5625 14.859375 -23.21875 C 14.429688 -21.882812 14.195312 -20.191406 14.15625 -18.140625 L 14.15625 -17.140625 C 14.15625 -14.941406 14.363281 -13.082031 14.78125 -11.5625 C 15.195312 -10.039062 15.894531 -8.882812 16.875 -8.09375 C 17.851562 -7.300781 19.207031 -6.90625 20.9375 -6.90625 C 22.351562 -6.90625 23.519531 -7.300781 24.4375 -8.09375 C 25.351562 -8.882812 26.035156 -10.046875 26.484375 -11.578125 C 26.941406 -13.109375 27.171875 -14.976562 27.171875 -17.1875 C 27.171875 -20.519531 26.65625 -23.023438 25.625 -24.703125 C 24.59375 -26.390625 22.988281 -27.234375 20.8125 -27.234375 Z M 20.8125 -27.234375 "/></g></g></g><g fill="#bc1823" fill-opacity="1"><g transform="translate(31.199325, 57.353839)"><g><path d="M 18.8125 -34.71875 C 23.375 -34.71875 26.867188 -33.722656 29.296875 -31.734375 C 31.734375 -29.753906 32.953125 -26.734375 32.953125 -22.671875 L 32.953125 0 L 26.484375 0 L 24.6875 -4.625 L 24.4375 -4.625 C 23.46875 -3.40625 22.472656 -2.410156 21.453125 -1.640625 C 20.441406 -0.867188 19.273438 -0.300781 17.953125 0.0625 C 16.640625 0.425781 15.035156 0.609375 13.140625 0.609375 C 11.140625 0.609375 9.34375 0.222656 7.75 -0.546875 C 6.15625 -1.316406 4.898438 -2.5 3.984375 -4.09375 C 3.078125 -5.6875 2.625 -7.710938 2.625 -10.171875 C 2.625 -13.773438 3.890625 -16.429688 6.421875 -18.140625 C 8.953125 -19.859375 12.753906 -20.8125 17.828125 -21 L 23.734375 -21.1875 L 23.734375 -22.671875 C 23.734375 -24.453125 23.265625 -25.757812 22.328125 -26.59375 C 21.398438 -27.425781 20.101562 -27.84375 18.4375 -27.84375 C 16.800781 -27.84375 15.191406 -27.609375 13.609375 -27.140625 C 12.023438 -26.679688 10.441406 -26.09375 8.859375 -25.375 L 5.78125 -31.65625 C 7.582031 -32.601562 9.601562 -33.347656 11.84375 -33.890625 C 14.09375 -34.441406 16.414062 -34.71875 18.8125 -34.71875 Z M 23.734375 -15.765625 L 20.140625 -15.640625 C 17.140625 -15.554688 15.054688 -15.015625 13.890625 -14.015625 C 12.722656 -13.023438 12.140625 -11.722656 12.140625 -10.109375 C 12.140625 -8.679688 12.554688 -7.664062 13.390625 -7.0625 C 14.222656 -6.46875 15.304688 -6.171875 16.640625 -6.171875 C 18.628906 -6.171875 20.304688 -6.757812 21.671875 -7.9375 C 23.046875 -9.113281 23.734375 -10.789062 23.734375 -12.96875 Z M 23.734375 -15.765625 "/></g></g></g><g fill="#bc1823" fill-opacity="1"><g transform="translate(62.979603, 57.353839)"><g><path d="M 28.609375 -10.109375 C 28.609375 -7.796875 28.0625 -5.84375 26.96875 -4.25 C 25.882812 -2.65625 24.269531 -1.445312 22.125 -0.625 C 19.976562 0.195312 17.300781 0.609375 14.09375 0.609375 C 11.71875 0.609375 9.679688 0.457031 7.984375 0.15625 C 6.296875 -0.144531 4.585938 -0.65625 2.859375 -1.375 L 2.859375 -9.03125 C 4.703125 -8.207031 6.679688 -7.523438 8.796875 -6.984375 C 10.921875 -6.441406 12.785156 -6.171875 14.390625 -6.171875 C 16.203125 -6.171875 17.5 -6.441406 18.28125 -6.984375 C 19.0625 -7.523438 19.453125 -8.226562 19.453125 -9.09375 C 19.453125 -9.664062 19.289062 -10.179688 18.96875 -10.640625 C 18.65625 -11.097656 17.984375 -11.613281 16.953125 -12.1875 C 15.921875 -12.769531 14.296875 -13.523438 12.078125 -14.453125 C 9.953125 -15.347656 8.203125 -16.25 6.828125 -17.15625 C 5.460938 -18.070312 4.445312 -19.15625 3.78125 -20.40625 C 3.125 -21.65625 2.796875 -23.242188 2.796875 -25.171875 C 2.796875 -28.316406 4.019531 -30.679688 6.46875 -32.265625 C 8.914062 -33.859375 12.1875 -34.65625 16.28125 -34.65625 C 18.394531 -34.65625 20.410156 -34.441406 22.328125 -34.015625 C 24.242188 -33.597656 26.21875 -32.921875 28.25 -31.984375 L 25.4375 -25.296875 C 23.757812 -26.023438 22.171875 -26.617188 20.671875 -27.078125 C 19.179688 -27.546875 17.664062 -27.78125 16.125 -27.78125 C 14.769531 -27.78125 13.742188 -27.597656 13.046875 -27.234375 C 12.359375 -26.867188 12.015625 -26.3125 12.015625 -25.5625 C 12.015625 -25.019531 12.191406 -24.535156 12.546875 -24.109375 C 12.910156 -23.679688 13.601562 -23.207031 14.625 -22.6875 C 15.644531 -22.164062 17.148438 -21.5 19.140625 -20.6875 C 21.066406 -19.90625 22.738281 -19.082031 24.15625 -18.21875 C 25.582031 -17.351562 26.679688 -16.285156 27.453125 -15.015625 C 28.222656 -13.742188 28.609375 -12.109375 28.609375 -10.109375 Z M 28.609375 -10.109375 "/></g></g></g><g fill="#bc1823" fill-opacity="1"><g transform="translate(88.096242, 57.353839)"><g><path d="M 28.609375 -10.109375 C 28.609375 -7.796875 28.0625 -5.84375 26.96875 -4.25 C 25.882812 -2.65625 24.269531 -1.445312 22.125 -0.625 C 19.976562 0.195312 17.300781 0.609375 14.09375 0.609375 C 11.71875 0.609375 9.679688 0.457031 7.984375 0.15625 C 6.296875 -0.144531 4.585938 -0.65625 2.859375 -1.375 L 2.859375 -9.03125 C 4.703125 -8.207031 6.679688 -7.523438 8.796875 -6.984375 C 10.921875 -6.441406 12.785156 -6.171875 14.390625 -6.171875 C 16.203125 -6.171875 17.5 -6.441406 18.28125 -6.984375 C 19.0625 -7.523438 19.453125 -8.226562 19.453125 -9.09375 C 19.453125 -9.664062 19.289062 -10.179688 18.96875 -10.640625 C 18.65625 -11.097656 17.984375 -11.613281 16.953125 -12.1875 C 15.921875 -12.769531 14.296875 -13.523438 12.078125 -14.453125 C 9.953125 -15.347656 8.203125 -16.25 6.828125 -17.15625 C 5.460938 -18.070312 4.445312 -19.15625 3.78125 -20.40625 C 3.125 -21.65625 2.796875 -23.242188 2.796875 -25.171875 C 2.796875 -28.316406 4.019531 -30.679688 6.46875 -32.265625 C 8.914062 -33.859375 12.1875 -34.65625 16.28125 -34.65625 C 18.394531 -34.65625 20.410156 -34.441406 22.328125 -34.015625 C 24.242188 -33.597656 26.21875 -32.921875 28.25 -31.984375 L 25.4375 -25.296875 C 23.757812 -26.023438 22.171875 -26.617188 20.671875 -27.078125 C 19.179688 -27.546875 17.664062 -27.78125 16.125 -27.78125 C 14.769531 -27.78125 13.742188 -27.597656 13.046875 -27.234375 C 12.359375 -26.867188 12.015625 -26.3125 12.015625 -25.5625 C 12.015625 -25.019531 12.191406 -24.535156 12.546875 -24.109375 C 12.910156 -23.679688 13.601562 -23.207031 14.625 -22.6875 C 15.644531 -22.164062 17.148438 -21.5 19.140625 -20.6875 C 21.066406 -19.90625 22.738281 -19.082031 24.15625 -18.21875 C 25.582031 -17.351562 26.679688 -16.285156 27.453125 -15.015625 C 28.222656 -13.742188 28.609375 -12.109375 28.609375 -10.109375 Z M 28.609375 -10.109375 "/></g></g></g><g fill="#bc1823" fill-opacity="1"><g transform="translate(113.212881, 57.353839)"><g><path d="M 35.796875 -17.078125 C 35.796875 -14.234375 35.410156 -11.710938 34.640625 -9.515625 C 33.878906 -7.328125 32.773438 -5.476562 31.328125 -3.96875 C 29.878906 -2.457031 28.132812 -1.316406 26.09375 -0.546875 C 24.050781 0.222656 21.753906 0.609375 19.203125 0.609375 C 16.804688 0.609375 14.609375 0.222656 12.609375 -0.546875 C 10.609375 -1.316406 8.875 -2.457031 7.40625 -3.96875 C 5.9375 -5.476562 4.800781 -7.328125 4 -9.515625 C 3.195312 -11.710938 2.796875 -14.234375 2.796875 -17.078125 C 2.796875 -20.847656 3.460938 -24.039062 4.796875 -26.65625 C 6.140625 -29.269531 8.050781 -31.253906 10.53125 -32.609375 C 13.007812 -33.972656 15.960938 -34.65625 19.390625 -34.65625 C 22.578125 -34.65625 25.398438 -33.972656 27.859375 -32.609375 C 30.328125 -31.253906 32.265625 -29.269531 33.671875 -26.65625 C 35.085938 -24.039062 35.796875 -20.847656 35.796875 -17.078125 Z M 12.265625 -17.078125 C 12.265625 -14.835938 12.503906 -12.957031 12.984375 -11.4375 C 13.472656 -9.914062 14.234375 -8.769531 15.265625 -8 C 16.304688 -7.226562 17.660156 -6.84375 19.328125 -6.84375 C 20.972656 -6.84375 22.304688 -7.226562 23.328125 -8 C 24.347656 -8.769531 25.097656 -9.914062 25.578125 -11.4375 C 26.054688 -12.957031 26.296875 -14.835938 26.296875 -17.078125 C 26.296875 -19.328125 26.054688 -21.195312 25.578125 -22.6875 C 25.097656 -24.175781 24.34375 -25.296875 23.3125 -26.046875 C 22.28125 -26.796875 20.929688 -27.171875 19.265625 -27.171875 C 16.804688 -27.171875 15.023438 -26.328125 13.921875 -24.640625 C 12.816406 -22.960938 12.265625 -20.441406 12.265625 -17.078125 Z M 12.265625 -17.078125 "/></g></g></g><g fill="#545454" fill-opacity="1"><g transform="translate(145.945691, 57.353839)"><g><path d="M 3.5625 -4.359375 C 3.5625 -6.265625 4.082031 -7.601562 5.125 -8.375 C 6.175781 -9.144531 7.441406 -9.53125 8.921875 -9.53125 C 10.359375 -9.53125 11.597656 -9.144531 12.640625 -8.375 C 13.691406 -7.601562 14.21875 -6.265625 14.21875 -4.359375 C 14.21875 -2.523438 13.691406 -1.203125 12.640625 -0.390625 C 11.597656 0.421875 10.359375 0.828125 8.921875 0.828125 C 7.441406 0.828125 6.175781 0.421875 5.125 -0.390625 C 4.082031 -1.203125 3.5625 -2.523438 3.5625 -4.359375 Z M 3.5625 -4.359375 "/></g></g></g><g fill="#bc1823" fill-opacity="1"><g transform="translate(157.861318, 57.353839)"><g><path d="M 24.1875 -34.65625 C 27.820312 -34.65625 30.742188 -33.664062 32.953125 -31.6875 C 35.171875 -29.71875 36.28125 -26.550781 36.28125 -22.1875 L 36.28125 0 L 27 0 L 27 -19.875 C 27 -22.3125 26.554688 -24.144531 25.671875 -25.375 C 24.785156 -26.613281 23.398438 -27.234375 21.515625 -27.234375 C 18.671875 -27.234375 16.734375 -26.269531 15.703125 -24.34375 C 14.671875 -22.414062 14.15625 -19.640625 14.15625 -16.015625 L 14.15625 0 L 4.875 0 L 4.875 -34.03125 L 11.953125 -34.03125 L 13.203125 -29.671875 L 13.71875 -29.671875 C 14.457031 -30.847656 15.367188 -31.800781 16.453125 -32.53125 C 17.535156 -33.257812 18.738281 -33.796875 20.0625 -34.140625 C 21.394531 -34.484375 22.769531 -34.65625 24.1875 -34.65625 Z M 24.1875 -34.65625 "/></g></g></g><g fill="#bc1823" fill-opacity="1"><g transform="translate(192.958193, 57.353839)"><g><path d="M 18.90625 -34.65625 C 22.039062 -34.65625 24.742188 -34.050781 27.015625 -32.84375 C 29.296875 -31.644531 31.050781 -29.898438 32.28125 -27.609375 C 33.519531 -25.316406 34.140625 -22.515625 34.140625 -19.203125 L 34.140625 -14.703125 L 12.203125 -14.703125 C 12.304688 -12.085938 13.09375 -10.03125 14.5625 -8.53125 C 16.03125 -7.039062 18.070312 -6.296875 20.6875 -6.296875 C 22.863281 -6.296875 24.851562 -6.519531 26.65625 -6.96875 C 28.46875 -7.414062 30.328125 -8.085938 32.234375 -8.984375 L 32.234375 -1.796875 C 30.546875 -0.960938 28.78125 -0.351562 26.9375 0.03125 C 25.101562 0.414062 22.878906 0.609375 20.265625 0.609375 C 16.859375 0.609375 13.84375 -0.0195312 11.21875 -1.28125 C 8.59375 -2.539062 6.53125 -4.457031 5.03125 -7.03125 C 3.539062 -9.601562 2.796875 -12.847656 2.796875 -16.765625 C 2.796875 -20.742188 3.46875 -24.054688 4.8125 -26.703125 C 6.164062 -29.347656 8.050781 -31.332031 10.46875 -32.65625 C 12.882812 -33.988281 15.695312 -34.65625 18.90625 -34.65625 Z M 18.953125 -28.0625 C 17.148438 -28.0625 15.65625 -27.484375 14.46875 -26.328125 C 13.28125 -25.171875 12.597656 -23.351562 12.421875 -20.875 L 25.4375 -20.875 C 25.414062 -22.257812 25.164062 -23.488281 24.6875 -24.5625 C 24.21875 -25.632812 23.507812 -26.484375 22.5625 -27.109375 C 21.625 -27.742188 20.421875 -28.0625 18.953125 -28.0625 Z M 18.953125 -28.0625 "/></g></g></g><g fill="#bc1823" fill-opacity="1"><g transform="translate(223.916922, 57.353839)"><g><path d="M 32.84375 0 L 30.21875 -11.90625 C 30.070312 -12.613281 29.835938 -13.660156 29.515625 -15.046875 C 29.191406 -16.441406 28.84375 -17.929688 28.46875 -19.515625 C 28.09375 -21.109375 27.75 -22.582031 27.4375 -23.9375 C 27.125 -25.300781 26.894531 -26.300781 26.75 -26.9375 L 26.484375 -26.9375 C 26.335938 -26.300781 26.109375 -25.300781 25.796875 -23.9375 C 25.492188 -22.582031 25.15625 -21.101562 24.78125 -19.5 C 24.40625 -17.90625 24.054688 -16.398438 23.734375 -14.984375 C 23.410156 -13.578125 23.171875 -12.507812 23.015625 -11.78125 L 20.265625 0 L 10.28125 0 L 0.609375 -34.03125 L 9.859375 -34.03125 L 13.78125 -18.953125 C 14.050781 -17.898438 14.304688 -16.648438 14.546875 -15.203125 C 14.785156 -13.753906 15 -12.351562 15.1875 -11 C 15.382812 -9.65625 15.535156 -8.585938 15.640625 -7.796875 L 15.890625 -7.796875 C 15.929688 -8.378906 16.015625 -9.15625 16.140625 -10.125 C 16.273438 -11.101562 16.425781 -12.113281 16.59375 -13.15625 C 16.769531 -14.207031 16.929688 -15.148438 17.078125 -15.984375 C 17.234375 -16.828125 17.351562 -17.40625 17.4375 -17.71875 L 21.640625 -34.03125 L 31.859375 -34.03125 L 35.84375 -17.71875 C 35.988281 -17.125 36.175781 -16.1875 36.40625 -14.90625 C 36.644531 -13.632812 36.851562 -12.320312 37.03125 -10.96875 C 37.21875 -9.625 37.320312 -8.566406 37.34375 -7.796875 L 37.578125 -7.796875 C 37.660156 -8.484375 37.800781 -9.503906 38 -10.859375 C 38.207031 -12.222656 38.445312 -13.648438 38.71875 -15.140625 C 39 -16.628906 39.28125 -17.898438 39.5625 -18.953125 L 43.640625 -34.03125 L 52.734375 -34.03125 L 42.9375 0 Z M 32.84375 0 "/></g></g></g><g fill="#bc1823" fill-opacity="1"><g transform="translate(271.397814, 57.353839)"><g><path d="M 28.609375 -10.109375 C 28.609375 -7.796875 28.0625 -5.84375 26.96875 -4.25 C 25.882812 -2.65625 24.269531 -1.445312 22.125 -0.625 C 19.976562 0.195312 17.300781 0.609375 14.09375 0.609375 C 11.71875 0.609375 9.679688 0.457031 7.984375 0.15625 C 6.296875 -0.144531 4.585938 -0.65625 2.859375 -1.375 L 2.859375 -9.03125 C 4.703125 -8.207031 6.679688 -7.523438 8.796875 -6.984375 C 10.921875 -6.441406 12.785156 -6.171875 14.390625 -6.171875 C 16.203125 -6.171875 17.5 -6.441406 18.28125 -6.984375 C 19.0625 -7.523438 19.453125 -8.226562 19.453125 -9.09375 C 19.453125 -9.664062 19.289062 -10.179688 18.96875 -10.640625 C 18.65625 -11.097656 17.984375 -11.613281 16.953125 -12.1875 C 15.921875 -12.769531 14.296875 -13.523438 12.078125 -14.453125 C 9.953125 -15.347656 8.203125 -16.25 6.828125 -17.15625 C 5.460938 -18.070312 4.445312 -19.15625 3.78125 -20.40625 C 3.125 -21.65625 2.796875 -23.242188 2.796875 -25.171875 C 2.796875 -28.316406 4.019531 -30.679688 6.46875 -32.265625 C 8.914062 -33.859375 12.1875 -34.65625 16.28125 -34.65625 C 18.394531 -34.65625 20.410156 -34.441406 22.328125 -34.015625 C 24.242188 -33.597656 26.21875 -32.921875 28.25 -31.984375 L 25.4375 -25.296875 C 23.757812 -26.023438 22.171875 -26.617188 20.671875 -27.078125 C 19.179688 -27.546875 17.664062 -27.78125 16.125 -27.78125 C 14.769531 -27.78125 13.742188 -27.597656 13.046875 -27.234375 C 12.359375 -26.867188 12.015625 -26.3125 12.015625 -25.5625 C 12.015625 -25.019531 12.191406 -24.535156 12.546875 -24.109375 C 12.910156 -23.679688 13.601562 -23.207031 14.625 -22.6875 C 15.644531 -22.164062 17.148438 -21.5 19.140625 -20.6875 C 21.066406 -19.90625 22.738281 -19.082031 24.15625 -18.21875 C 25.582031 -17.351562 26.679688 -16.285156 27.453125 -15.015625 C 28.222656 -13.742188 28.609375 -12.109375 28.609375 -10.109375 Z M 28.609375 -10.109375 "/></g></g></g><g fill="#545454" fill-opacity="1"><g transform="translate(176.330587, 68.440285)"><g><path d="M 2.109375 -9.640625 L 2.109375 -7.234375 C 2.109375 -6.953125 2.097656 -6.679688 2.078125 -6.421875 C 2.066406 -6.160156 2.0625 -5.957031 2.0625 -5.8125 L 2.109375 -5.8125 C 2.296875 -6.125 2.5625 -6.382812 2.90625 -6.59375 C 3.257812 -6.800781 3.710938 -6.90625 4.265625 -6.90625 C 5.109375 -6.90625 5.785156 -6.609375 6.296875 -6.015625 C 6.804688 -5.429688 7.0625 -4.5625 7.0625 -3.40625 C 7.0625 -2.632812 6.941406 -1.988281 6.703125 -1.46875 C 6.472656 -0.945312 6.144531 -0.550781 5.71875 -0.28125 C 5.300781 -0.0078125 4.804688 0.125 4.234375 0.125 C 3.703125 0.125 3.257812 0.0234375 2.90625 -0.171875 C 2.5625 -0.378906 2.300781 -0.625 2.125 -0.90625 L 2.03125 -0.90625 L 1.828125 0 L 1.078125 0 L 1.078125 -9.640625 Z M 4.09375 -6.046875 C 3.601562 -6.046875 3.210938 -5.945312 2.921875 -5.75 C 2.628906 -5.5625 2.421875 -5.273438 2.296875 -4.890625 C 2.171875 -4.503906 2.109375 -4.015625 2.109375 -3.421875 L 2.109375 -3.375 C 2.109375 -2.519531 2.25 -1.863281 2.53125 -1.40625 C 2.820312 -0.957031 3.34375 -0.734375 4.09375 -0.734375 C 4.726562 -0.734375 5.203125 -0.960938 5.515625 -1.421875 C 5.828125 -1.890625 5.984375 -2.550781 5.984375 -3.40625 C 5.984375 -4.28125 5.828125 -4.9375 5.515625 -5.375 C 5.210938 -5.820312 4.738281 -6.046875 4.09375 -6.046875 Z M 4.09375 -6.046875 "/></g></g></g><g fill="#545454" fill-opacity="1"><g transform="translate(184.088227, 68.440285)"><g><path d="M 4.171875 -6.90625 C 4.304688 -6.90625 4.445312 -6.898438 4.59375 -6.890625 C 4.738281 -6.878906 4.875 -6.859375 5 -6.828125 L 4.859375 -5.875 C 4.753906 -5.90625 4.628906 -5.925781 4.484375 -5.9375 C 4.347656 -5.957031 4.222656 -5.96875 4.109375 -5.96875 C 3.835938 -5.96875 3.578125 -5.910156 3.328125 -5.796875 C 3.085938 -5.691406 2.875 -5.535156 2.6875 -5.328125 C 2.507812 -5.128906 2.367188 -4.882812 2.265625 -4.59375 C 2.171875 -4.3125 2.125 -3.992188 2.125 -3.640625 L 2.125 0 L 1.078125 0 L 1.078125 -6.796875 L 1.9375 -6.796875 L 2.046875 -5.53125 L 2.09375 -5.53125 C 2.226562 -5.789062 2.394531 -6.023438 2.59375 -6.234375 C 2.800781 -6.441406 3.035156 -6.601562 3.296875 -6.71875 C 3.554688 -6.84375 3.847656 -6.90625 4.171875 -6.90625 Z M 4.171875 -6.90625 "/></g></g></g><g fill="#545454" fill-opacity="1"><g transform="translate(189.270306, 68.440285)"><g><path d="M 2.109375 -6.796875 L 2.109375 0 L 1.078125 0 L 1.078125 -6.796875 Z M 1.609375 -9.328125 C 1.773438 -9.328125 1.921875 -9.269531 2.046875 -9.15625 C 2.171875 -9.050781 2.234375 -8.882812 2.234375 -8.65625 C 2.234375 -8.425781 2.171875 -8.253906 2.046875 -8.140625 C 1.921875 -8.035156 1.773438 -7.984375 1.609375 -7.984375 C 1.429688 -7.984375 1.28125 -8.035156 1.15625 -8.140625 C 1.039062 -8.253906 0.984375 -8.425781 0.984375 -8.65625 C 0.984375 -8.882812 1.039062 -9.050781 1.15625 -9.15625 C 1.28125 -9.269531 1.429688 -9.328125 1.609375 -9.328125 Z M 1.609375 -9.328125 "/></g></g></g><g fill="#545454" fill-opacity="1"><g transform="translate(192.471184, 68.440285)"><g><path d="M 3.5 0.125 C 2.644531 0.125 1.960938 -0.164062 1.453125 -0.75 C 0.953125 -1.34375 0.703125 -2.21875 0.703125 -3.375 C 0.703125 -4.539062 0.957031 -5.421875 1.46875 -6.015625 C 1.988281 -6.609375 2.671875 -6.90625 3.515625 -6.90625 C 3.878906 -6.90625 4.191406 -6.859375 4.453125 -6.765625 C 4.722656 -6.671875 4.957031 -6.546875 5.15625 -6.390625 C 5.351562 -6.234375 5.515625 -6.050781 5.640625 -5.84375 L 5.71875 -5.84375 C 5.695312 -5.976562 5.675781 -6.15625 5.65625 -6.375 C 5.644531 -6.59375 5.640625 -6.773438 5.640625 -6.921875 L 5.640625 -9.640625 L 6.671875 -9.640625 L 6.671875 0 L 5.84375 0 L 5.6875 -0.96875 L 5.640625 -0.96875 C 5.515625 -0.757812 5.351562 -0.570312 5.15625 -0.40625 C 4.957031 -0.25 4.722656 -0.117188 4.453125 -0.015625 C 4.179688 0.078125 3.863281 0.125 3.5 0.125 Z M 3.65625 -0.734375 C 4.382812 -0.734375 4.898438 -0.9375 5.203125 -1.34375 C 5.503906 -1.757812 5.65625 -2.375 5.65625 -3.1875 L 5.65625 -3.375 C 5.65625 -4.238281 5.507812 -4.898438 5.21875 -5.359375 C 4.9375 -5.828125 4.414062 -6.0625 3.65625 -6.0625 C 3.03125 -6.0625 2.554688 -5.816406 2.234375 -5.328125 C 1.921875 -4.847656 1.765625 -4.1875 1.765625 -3.34375 C 1.765625 -2.507812 1.921875 -1.863281 2.234375 -1.40625 C 2.546875 -0.957031 3.019531 -0.734375 3.65625 -0.734375 Z M 3.65625 -0.734375 "/></g></g></g><g fill="#545454" fill-opacity="1"><g transform="translate(200.228824, 68.440285)"><g><path d="M 2.984375 3.046875 C 2.085938 3.046875 1.394531 2.878906 0.90625 2.546875 C 0.425781 2.210938 0.1875 1.75 0.1875 1.15625 C 0.1875 0.726562 0.320312 0.363281 0.59375 0.0625 C 0.863281 -0.238281 1.238281 -0.4375 1.71875 -0.53125 C 1.539062 -0.613281 1.390625 -0.738281 1.265625 -0.90625 C 1.140625 -1.070312 1.078125 -1.265625 1.078125 -1.484375 C 1.078125 -1.734375 1.144531 -1.953125 1.28125 -2.140625 C 1.425781 -2.328125 1.640625 -2.503906 1.921875 -2.671875 C 1.566406 -2.816406 1.273438 -3.0625 1.046875 -3.40625 C 0.828125 -3.75 0.71875 -4.148438 0.71875 -4.609375 C 0.71875 -5.097656 0.816406 -5.515625 1.015625 -5.859375 C 1.222656 -6.203125 1.519531 -6.460938 1.90625 -6.640625 C 2.289062 -6.828125 2.753906 -6.921875 3.296875 -6.921875 C 3.421875 -6.921875 3.539062 -6.914062 3.65625 -6.90625 C 3.78125 -6.894531 3.898438 -6.878906 4.015625 -6.859375 C 4.128906 -6.847656 4.226562 -6.828125 4.3125 -6.796875 L 6.640625 -6.796875 L 6.640625 -6.140625 L 5.390625 -5.984375 C 5.503906 -5.828125 5.601562 -5.632812 5.6875 -5.40625 C 5.769531 -5.175781 5.8125 -4.921875 5.8125 -4.640625 C 5.8125 -3.960938 5.582031 -3.425781 5.125 -3.03125 C 4.664062 -2.632812 4.035156 -2.4375 3.234375 -2.4375 C 3.046875 -2.4375 2.851562 -2.453125 2.65625 -2.484375 C 2.457031 -2.367188 2.300781 -2.242188 2.1875 -2.109375 C 2.082031 -1.972656 2.03125 -1.816406 2.03125 -1.640625 C 2.03125 -1.503906 2.070312 -1.394531 2.15625 -1.3125 C 2.238281 -1.238281 2.351562 -1.1875 2.5 -1.15625 C 2.65625 -1.125 2.84375 -1.109375 3.0625 -1.109375 L 4.25 -1.109375 C 4.988281 -1.109375 5.554688 -0.953125 5.953125 -0.640625 C 6.347656 -0.328125 6.546875 0.125 6.546875 0.71875 C 6.546875 1.46875 6.238281 2.039062 5.625 2.4375 C 5.019531 2.84375 4.140625 3.046875 2.984375 3.046875 Z M 3.015625 2.25 C 3.578125 2.25 4.039062 2.191406 4.40625 2.078125 C 4.78125 1.960938 5.054688 1.796875 5.234375 1.578125 C 5.421875 1.367188 5.515625 1.117188 5.515625 0.828125 C 5.515625 0.554688 5.453125 0.347656 5.328125 0.203125 C 5.203125 0.0664062 5.019531 -0.0195312 4.78125 -0.0625 C 4.539062 -0.113281 4.25 -0.140625 3.90625 -0.140625 L 2.71875 -0.140625 C 2.414062 -0.140625 2.148438 -0.09375 1.921875 0 C 1.703125 0.09375 1.53125 0.234375 1.40625 0.421875 C 1.28125 0.609375 1.21875 0.835938 1.21875 1.109375 C 1.21875 1.484375 1.375 1.765625 1.6875 1.953125 C 2 2.148438 2.441406 2.25 3.015625 2.25 Z M 3.28125 -3.1875 C 3.769531 -3.1875 4.140625 -3.304688 4.390625 -3.546875 C 4.640625 -3.796875 4.765625 -4.160156 4.765625 -4.640625 C 4.765625 -5.148438 4.632812 -5.53125 4.375 -5.78125 C 4.125 -6.039062 3.753906 -6.171875 3.265625 -6.171875 C 2.796875 -6.171875 2.429688 -6.035156 2.171875 -5.765625 C 1.921875 -5.503906 1.796875 -5.125 1.796875 -4.625 C 1.796875 -4.15625 1.921875 -3.796875 2.171875 -3.546875 C 2.429688 -3.304688 2.800781 -3.1875 3.28125 -3.1875 Z M 3.28125 -3.1875 "/></g></g></g><g fill="#545454" fill-opacity="1"><g transform="translate(207.113497, 68.440285)"><g><path d="M 2.109375 -6.796875 L 2.109375 0 L 1.078125 0 L 1.078125 -6.796875 Z M 1.609375 -9.328125 C 1.773438 -9.328125 1.921875 -9.269531 2.046875 -9.15625 C 2.171875 -9.050781 2.234375 -8.882812 2.234375 -8.65625 C 2.234375 -8.425781 2.171875 -8.253906 2.046875 -8.140625 C 1.921875 -8.035156 1.773438 -7.984375 1.609375 -7.984375 C 1.429688 -7.984375 1.28125 -8.035156 1.15625 -8.140625 C 1.039062 -8.253906 0.984375 -8.425781 0.984375 -8.65625 C 0.984375 -8.882812 1.039062 -9.050781 1.15625 -9.15625 C 1.28125 -9.269531 1.429688 -9.328125 1.609375 -9.328125 Z M 1.609375 -9.328125 "/></g></g></g><g fill="#545454" fill-opacity="1"><g transform="translate(210.314375, 68.440285)"><g><path d="M 4.296875 -6.90625 C 5.097656 -6.90625 5.707031 -6.707031 6.125 -6.3125 C 6.539062 -5.925781 6.75 -5.296875 6.75 -4.421875 L 6.75 0 L 5.734375 0 L 5.734375 -4.359375 C 5.734375 -4.921875 5.601562 -5.34375 5.34375 -5.625 C 5.082031 -5.90625 4.6875 -6.046875 4.15625 -6.046875 C 3.40625 -6.046875 2.875 -5.832031 2.5625 -5.40625 C 2.257812 -4.976562 2.109375 -4.363281 2.109375 -3.5625 L 2.109375 0 L 1.078125 0 L 1.078125 -6.796875 L 1.921875 -6.796875 L 2.0625 -5.8125 L 2.125 -5.8125 C 2.269531 -6.050781 2.453125 -6.25 2.671875 -6.40625 C 2.898438 -6.570312 3.148438 -6.695312 3.421875 -6.78125 C 3.703125 -6.863281 3.992188 -6.90625 4.296875 -6.90625 Z M 4.296875 -6.90625 "/></g></g></g><g fill="#545454" fill-opacity="1"><g transform="translate(218.090589, 68.440285)"><g><path d="M 2.984375 3.046875 C 2.085938 3.046875 1.394531 2.878906 0.90625 2.546875 C 0.425781 2.210938 0.1875 1.75 0.1875 1.15625 C 0.1875 0.726562 0.320312 0.363281 0.59375 0.0625 C 0.863281 -0.238281 1.238281 -0.4375 1.71875 -0.53125 C 1.539062 -0.613281 1.390625 -0.738281 1.265625 -0.90625 C 1.140625 -1.070312 1.078125 -1.265625 1.078125 -1.484375 C 1.078125 -1.734375 1.144531 -1.953125 1.28125 -2.140625 C 1.425781 -2.328125 1.640625 -2.503906 1.921875 -2.671875 C 1.566406 -2.816406 1.273438 -3.0625 1.046875 -3.40625 C 0.828125 -3.75 0.71875 -4.148438 0.71875 -4.609375 C 0.71875 -5.097656 0.816406 -5.515625 1.015625 -5.859375 C 1.222656 -6.203125 1.519531 -6.460938 1.90625 -6.640625 C 2.289062 -6.828125 2.753906 -6.921875 3.296875 -6.921875 C 3.421875 -6.921875 3.539062 -6.914062 3.65625 -6.90625 C 3.78125 -6.894531 3.898438 -6.878906 4.015625 -6.859375 C 4.128906 -6.847656 4.226562 -6.828125 4.3125 -6.796875 L 6.640625 -6.796875 L 6.640625 -6.140625 L 5.390625 -5.984375 C 5.503906 -5.828125 5.601562 -5.632812 5.6875 -5.40625 C 5.769531 -5.175781 5.8125 -4.921875 5.8125 -4.640625 C 5.8125 -3.960938 5.582031 -3.425781 5.125 -3.03125 C 4.664062 -2.632812 4.035156 -2.4375 3.234375 -2.4375 C 3.046875 -2.4375 2.851562 -2.453125 2.65625 -2.484375 C 2.457031 -2.367188 2.300781 -2.242188 2.1875 -2.109375 C 2.082031 -1.972656 2.03125 -1.816406 2.03125 -1.640625 C 2.03125 -1.503906 2.070312 -1.394531 2.15625 -1.3125 C 2.238281 -1.238281 2.351562 -1.1875 2.5 -1.15625 C 2.65625 -1.125 2.84375 -1.109375 3.0625 -1.109375 L 4.25 -1.109375 C 4.988281 -1.109375 5.554688 -0.953125 5.953125 -0.640625 C 6.347656 -0.328125 6.546875 0.125 6.546875 0.71875 C 6.546875 1.46875 6.238281 2.039062 5.625 2.4375 C 5.019531 2.84375 4.140625 3.046875 2.984375 3.046875 Z M 3.015625 2.25 C 3.578125 2.25 4.039062 2.191406 4.40625 2.078125 C 4.78125 1.960938 5.054688 1.796875 5.234375 1.578125 C 5.421875 1.367188 5.515625 1.117188 5.515625 0.828125 C 5.515625 0.554688 5.453125 0.347656 5.328125 0.203125 C 5.203125 0.0664062 5.019531 -0.0195312 4.78125 -0.0625 C 4.539062 -0.113281 4.25 -0.140625 3.90625 -0.140625 L 2.71875 -0.140625 C 2.414062 -0.140625 2.148438 -0.09375 1.921875 0 C 1.703125 0.09375 1.53125 0.234375 1.40625 0.421875 C 1.28125 0.609375 1.21875 0.835938 1.21875 1.109375 C 1.21875 1.484375 1.375 1.765625 1.6875 1.953125 C 2 2.148438 2.441406 2.25 3.015625 2.25 Z M 3.28125 -3.1875 C 3.769531 -3.1875 4.140625 -3.304688 4.390625 -3.546875 C 4.640625 -3.796875 4.765625 -4.160156 4.765625 -4.640625 C 4.765625 -5.148438 4.632812 -5.53125 4.375 -5.78125 C 4.125 -6.039062 3.753906 -6.171875 3.265625 -6.171875 C 2.796875 -6.171875 2.429688 -6.035156 2.171875 -5.765625 C 1.921875 -5.503906 1.796875 -5.125 1.796875 -4.625 C 1.796875 -4.15625 1.921875 -3.796875 2.171875 -3.546875 C 2.429688 -3.304688 2.800781 -3.1875 3.28125 -3.1875 Z M 3.28125 -3.1875 "/></g></g></g><g fill="#545454" fill-opacity="1"><g transform="translate(224.975263, 68.440285)"><g/></g></g><g fill="#545454" fill-opacity="1"><g transform="translate(228.269009, 68.440285)"><g><path d="M 3.796875 0.125 C 3.191406 0.125 2.65625 0 2.1875 -0.25 C 1.71875 -0.5 1.351562 -0.882812 1.09375 -1.40625 C 0.832031 -1.925781 0.703125 -2.578125 0.703125 -3.359375 C 0.703125 -4.179688 0.835938 -4.851562 1.109375 -5.375 C 1.390625 -5.894531 1.769531 -6.28125 2.25 -6.53125 C 2.738281 -6.78125 3.289062 -6.90625 3.90625 -6.90625 C 4.238281 -6.90625 4.5625 -6.867188 4.875 -6.796875 C 5.195312 -6.734375 5.457031 -6.648438 5.65625 -6.546875 L 5.359375 -5.6875 C 5.148438 -5.769531 4.910156 -5.84375 4.640625 -5.90625 C 4.367188 -5.976562 4.113281 -6.015625 3.875 -6.015625 C 3.40625 -6.015625 3.015625 -5.910156 2.703125 -5.703125 C 2.390625 -5.503906 2.15625 -5.207031 2 -4.8125 C 1.84375 -4.425781 1.765625 -3.945312 1.765625 -3.375 C 1.765625 -2.820312 1.835938 -2.347656 1.984375 -1.953125 C 2.140625 -1.566406 2.367188 -1.269531 2.671875 -1.0625 C 2.972656 -0.863281 3.347656 -0.765625 3.796875 -0.765625 C 4.160156 -0.765625 4.484375 -0.800781 4.765625 -0.875 C 5.054688 -0.957031 5.320312 -1.050781 5.5625 -1.15625 L 5.5625 -0.234375 C 5.332031 -0.117188 5.078125 -0.03125 4.796875 0.03125 C 4.515625 0.09375 4.179688 0.125 3.796875 0.125 Z M 3.796875 0.125 "/></g></g></g><g fill="#545454" fill-opacity="1"><g transform="translate(234.342629, 68.440285)"><g><path d="M 6.9375 -3.40625 C 6.9375 -2.851562 6.863281 -2.351562 6.71875 -1.90625 C 6.570312 -1.46875 6.363281 -1.097656 6.09375 -0.796875 C 5.820312 -0.503906 5.492188 -0.273438 5.109375 -0.109375 C 4.722656 0.046875 4.285156 0.125 3.796875 0.125 C 3.335938 0.125 2.921875 0.046875 2.546875 -0.109375 C 2.171875 -0.273438 1.84375 -0.503906 1.5625 -0.796875 C 1.289062 -1.097656 1.078125 -1.46875 0.921875 -1.90625 C 0.773438 -2.351562 0.703125 -2.851562 0.703125 -3.40625 C 0.703125 -4.144531 0.828125 -4.773438 1.078125 -5.296875 C 1.335938 -5.828125 1.703125 -6.226562 2.171875 -6.5 C 2.640625 -6.769531 3.195312 -6.90625 3.84375 -6.90625 C 4.457031 -6.90625 5 -6.765625 5.46875 -6.484375 C 5.9375 -6.210938 6.296875 -5.816406 6.546875 -5.296875 C 6.804688 -4.773438 6.9375 -4.144531 6.9375 -3.40625 Z M 1.765625 -3.40625 C 1.765625 -2.863281 1.835938 -2.390625 1.984375 -1.984375 C 2.128906 -1.585938 2.351562 -1.28125 2.65625 -1.0625 C 2.957031 -0.84375 3.347656 -0.734375 3.828125 -0.734375 C 4.296875 -0.734375 4.679688 -0.84375 4.984375 -1.0625 C 5.285156 -1.28125 5.507812 -1.585938 5.65625 -1.984375 C 5.800781 -2.390625 5.875 -2.863281 5.875 -3.40625 C 5.875 -3.945312 5.800781 -4.414062 5.65625 -4.8125 C 5.507812 -5.207031 5.285156 -5.507812 4.984375 -5.71875 C 4.679688 -5.9375 4.289062 -6.046875 3.8125 -6.046875 C 3.101562 -6.046875 2.582031 -5.8125 2.25 -5.34375 C 1.925781 -4.875 1.765625 -4.226562 1.765625 -3.40625 Z M 1.765625 -3.40625 "/></g></g></g><g fill="#545454" fill-opacity="1"><g transform="translate(241.970253, 68.440285)"><g><path d="M 4.296875 -6.90625 C 5.097656 -6.90625 5.707031 -6.707031 6.125 -6.3125 C 6.539062 -5.925781 6.75 -5.296875 6.75 -4.421875 L 6.75 0 L 5.734375 0 L 5.734375 -4.359375 C 5.734375 -4.921875 5.601562 -5.34375 5.34375 -5.625 C 5.082031 -5.90625 4.6875 -6.046875 4.15625 -6.046875 C 3.40625 -6.046875 2.875 -5.832031 2.5625 -5.40625 C 2.257812 -4.976562 2.109375 -4.363281 2.109375 -3.5625 L 2.109375 0 L 1.078125 0 L 1.078125 -6.796875 L 1.921875 -6.796875 L 2.0625 -5.8125 L 2.125 -5.8125 C 2.269531 -6.050781 2.453125 -6.25 2.671875 -6.40625 C 2.898438 -6.570312 3.148438 -6.695312 3.421875 -6.78125 C 3.703125 -6.863281 3.992188 -6.90625 4.296875 -6.90625 Z M 4.296875 -6.90625 "/></g></g></g><g fill="#545454" fill-opacity="1"><g transform="translate(249.746467, 68.440285)"><g><path d="M 4.296875 -6.90625 C 5.097656 -6.90625 5.707031 -6.707031 6.125 -6.3125 C 6.539062 -5.925781 6.75 -5.296875 6.75 -4.421875 L 6.75 0 L 5.734375 0 L 5.734375 -4.359375 C 5.734375 -4.921875 5.601562 -5.34375 5.34375 -5.625 C 5.082031 -5.90625 4.6875 -6.046875 4.15625 -6.046875 C 3.40625 -6.046875 2.875 -5.832031 2.5625 -5.40625 C 2.257812 -4.976562 2.109375 -4.363281 2.109375 -3.5625 L 2.109375 0 L 1.078125 0 L 1.078125 -6.796875 L 1.921875 -6.796875 L 2.0625 -5.8125 L 2.125 -5.8125 C 2.269531 -6.050781 2.453125 -6.25 2.671875 -6.40625 C 2.898438 -6.570312 3.148438 -6.695312 3.421875 -6.78125 C 3.703125 -6.863281 3.992188 -6.90625 4.296875 -6.90625 Z M 4.296875 -6.90625 "/></g></g></g><g fill="#545454" fill-opacity="1"><g transform="translate(257.52268, 68.440285)"><g><path d="M 3.703125 -6.90625 C 4.273438 -6.90625 4.769531 -6.773438 5.1875 -6.515625 C 5.601562 -6.265625 5.921875 -5.910156 6.140625 -5.453125 C 6.359375 -4.992188 6.46875 -4.457031 6.46875 -3.84375 L 6.46875 -3.203125 L 1.765625 -3.203125 C 1.785156 -2.398438 1.984375 -1.789062 2.359375 -1.375 C 2.742188 -0.957031 3.285156 -0.75 3.984375 -0.75 C 4.421875 -0.75 4.800781 -0.785156 5.125 -0.859375 C 5.457031 -0.941406 5.800781 -1.0625 6.15625 -1.21875 L 6.15625 -0.3125 C 5.8125 -0.164062 5.472656 -0.0546875 5.140625 0.015625 C 4.804688 0.0859375 4.410156 0.125 3.953125 0.125 C 3.296875 0.125 2.722656 -0.00390625 2.234375 -0.265625 C 1.753906 -0.535156 1.378906 -0.925781 1.109375 -1.4375 C 0.835938 -1.957031 0.703125 -2.59375 0.703125 -3.34375 C 0.703125 -4.070312 0.820312 -4.703125 1.0625 -5.234375 C 1.3125 -5.773438 1.660156 -6.1875 2.109375 -6.46875 C 2.554688 -6.757812 3.085938 -6.90625 3.703125 -6.90625 Z M 3.6875 -6.078125 C 3.132812 -6.078125 2.695312 -5.894531 2.375 -5.53125 C 2.050781 -5.175781 1.859375 -4.675781 1.796875 -4.03125 L 5.390625 -4.03125 C 5.378906 -4.4375 5.3125 -4.789062 5.1875 -5.09375 C 5.070312 -5.40625 4.890625 -5.644531 4.640625 -5.8125 C 4.390625 -5.988281 4.070312 -6.078125 3.6875 -6.078125 Z M 3.6875 -6.078125 "/></g></g></g><g fill="#545454" fill-opacity="1"><g transform="translate(264.642622, 68.440285)"><g><path d="M 3.796875 0.125 C 3.191406 0.125 2.65625 0 2.1875 -0.25 C 1.71875 -0.5 1.351562 -0.882812 1.09375 -1.40625 C 0.832031 -1.925781 0.703125 -2.578125 0.703125 -3.359375 C 0.703125 -4.179688 0.835938 -4.851562 1.109375 -5.375 C 1.390625 -5.894531 1.769531 -6.28125 2.25 -6.53125 C 2.738281 -6.78125 3.289062 -6.90625 3.90625 -6.90625 C 4.238281 -6.90625 4.5625 -6.867188 4.875 -6.796875 C 5.195312 -6.734375 5.457031 -6.648438 5.65625 -6.546875 L 5.359375 -5.6875 C 5.148438 -5.769531 4.910156 -5.84375 4.640625 -5.90625 C 4.367188 -5.976562 4.113281 -6.015625 3.875 -6.015625 C 3.40625 -6.015625 3.015625 -5.910156 2.703125 -5.703125 C 2.390625 -5.503906 2.15625 -5.207031 2 -4.8125 C 1.84375 -4.425781 1.765625 -3.945312 1.765625 -3.375 C 1.765625 -2.820312 1.835938 -2.347656 1.984375 -1.953125 C 2.140625 -1.566406 2.367188 -1.269531 2.671875 -1.0625 C 2.972656 -0.863281 3.347656 -0.765625 3.796875 -0.765625 C 4.160156 -0.765625 4.484375 -0.800781 4.765625 -0.875 C 5.054688 -0.957031 5.320312 -1.050781 5.5625 -1.15625 L 5.5625 -0.234375 C 5.332031 -0.117188 5.078125 -0.03125 4.796875 0.03125 C 4.515625 0.09375 4.179688 0.125 3.796875 0.125 Z M 3.796875 0.125 "/></g></g></g><g fill="#545454" fill-opacity="1"><g transform="translate(270.716241, 68.440285)"><g><path d="M 3.28125 -0.71875 C 3.445312 -0.71875 3.617188 -0.734375 3.796875 -0.765625 C 3.972656 -0.796875 4.117188 -0.832031 4.234375 -0.875 L 4.234375 -0.0625 C 4.109375 -0.0078125 3.9375 0.03125 3.71875 0.0625 C 3.507812 0.101562 3.304688 0.125 3.109375 0.125 C 2.753906 0.125 2.425781 0.0625 2.125 -0.0625 C 1.832031 -0.1875 1.597656 -0.398438 1.421875 -0.703125 C 1.253906 -1.003906 1.171875 -1.421875 1.171875 -1.953125 L 1.171875 -5.984375 L 0.203125 -5.984375 L 0.203125 -6.484375 L 1.171875 -6.890625 L 1.578125 -8.359375 L 2.203125 -8.359375 L 2.203125 -6.796875 L 4.1875 -6.796875 L 4.1875 -5.984375 L 2.203125 -5.984375 L 2.203125 -1.984375 C 2.203125 -1.554688 2.296875 -1.238281 2.484375 -1.03125 C 2.679688 -0.820312 2.945312 -0.71875 3.28125 -0.71875 Z M 3.28125 -0.71875 "/></g></g></g><g fill="#545454" fill-opacity="1"><g transform="translate(275.235856, 68.440285)"><g><path d="M 2.109375 -6.796875 L 2.109375 0 L 1.078125 0 L 1.078125 -6.796875 Z M 1.609375 -9.328125 C 1.773438 -9.328125 1.921875 -9.269531 2.046875 -9.15625 C 2.171875 -9.050781 2.234375 -8.882812 2.234375 -8.65625 C 2.234375 -8.425781 2.171875 -8.253906 2.046875 -8.140625 C 1.921875 -8.035156 1.773438 -7.984375 1.609375 -7.984375 C 1.429688 -7.984375 1.28125 -8.035156 1.15625 -8.140625 C 1.039062 -8.253906 0.984375 -8.425781 0.984375 -8.65625 C 0.984375 -8.882812 1.039062 -9.050781 1.15625 -9.15625 C 1.28125 -9.269531 1.429688 -9.328125 1.609375 -9.328125 Z M 1.609375 -9.328125 "/></g></g></g><g fill="#545454" fill-opacity="1"><g transform="translate(278.436734, 68.440285)"><g><path d="M 6.9375 -3.40625 C 6.9375 -2.851562 6.863281 -2.351562 6.71875 -1.90625 C 6.570312 -1.46875 6.363281 -1.097656 6.09375 -0.796875 C 5.820312 -0.503906 5.492188 -0.273438 5.109375 -0.109375 C 4.722656 0.046875 4.285156 0.125 3.796875 0.125 C 3.335938 0.125 2.921875 0.046875 2.546875 -0.109375 C 2.171875 -0.273438 1.84375 -0.503906 1.5625 -0.796875 C 1.289062 -1.097656 1.078125 -1.46875 0.921875 -1.90625 C 0.773438 -2.351562 0.703125 -2.851562 0.703125 -3.40625 C 0.703125 -4.144531 0.828125 -4.773438 1.078125 -5.296875 C 1.335938 -5.828125 1.703125 -6.226562 2.171875 -6.5 C 2.640625 -6.769531 3.195312 -6.90625 3.84375 -6.90625 C 4.457031 -6.90625 5 -6.765625 5.46875 -6.484375 C 5.9375 -6.210938 6.296875 -5.816406 6.546875 -5.296875 C 6.804688 -4.773438 6.9375 -4.144531 6.9375 -3.40625 Z M 1.765625 -3.40625 C 1.765625 -2.863281 1.835938 -2.390625 1.984375 -1.984375 C 2.128906 -1.585938 2.351562 -1.28125 2.65625 -1.0625 C 2.957031 -0.84375 3.347656 -0.734375 3.828125 -0.734375 C 4.296875 -0.734375 4.679688 -0.84375 4.984375 -1.0625 C 5.285156 -1.28125 5.507812 -1.585938 5.65625 -1.984375 C 5.800781 -2.390625 5.875 -2.863281 5.875 -3.40625 C 5.875 -3.945312 5.800781 -4.414062 5.65625 -4.8125 C 5.507812 -5.207031 5.285156 -5.507812 4.984375 -5.71875 C 4.679688 -5.9375 4.289062 -6.046875 3.8125 -6.046875 C 3.101562 -6.046875 2.582031 -5.8125 2.25 -5.34375 C 1.925781 -4.875 1.765625 -4.226562 1.765625 -3.40625 Z M 1.765625 -3.40625 "/></g></g></g><g fill="#545454" fill-opacity="1"><g transform="translate(286.064358, 68.440285)"><g><path d="M 4.296875 -6.90625 C 5.097656 -6.90625 5.707031 -6.707031 6.125 -6.3125 C 6.539062 -5.925781 6.75 -5.296875 6.75 -4.421875 L 6.75 0 L 5.734375 0 L 5.734375 -4.359375 C 5.734375 -4.921875 5.601562 -5.34375 5.34375 -5.625 C 5.082031 -5.90625 4.6875 -6.046875 4.15625 -6.046875 C 3.40625 -6.046875 2.875 -5.832031 2.5625 -5.40625 C 2.257812 -4.976562 2.109375 -4.363281 2.109375 -3.5625 L 2.109375 0 L 1.078125 0 L 1.078125 -6.796875 L 1.921875 -6.796875 L 2.0625 -5.8125 L 2.125 -5.8125 C 2.269531 -6.050781 2.453125 -6.25 2.671875 -6.40625 C 2.898438 -6.570312 3.148438 -6.695312 3.421875 -6.78125 C 3.703125 -6.863281 3.992188 -6.90625 4.296875 -6.90625 Z M 4.296875 -6.90625 "/></g></g></g><g fill="#545454" fill-opacity="1"><g transform="translate(293.840571, 68.440285)"><g><path d="M 5.46875 -1.859375 C 5.46875 -1.421875 5.359375 -1.054688 5.140625 -0.765625 C 4.929688 -0.472656 4.625 -0.25 4.21875 -0.09375 C 3.820312 0.0507812 3.34375 0.125 2.78125 0.125 C 2.300781 0.125 1.890625 0.0859375 1.546875 0.015625 C 1.203125 -0.0546875 0.898438 -0.160156 0.640625 -0.296875 L 0.640625 -1.25 C 0.910156 -1.113281 1.238281 -0.988281 1.625 -0.875 C 2.007812 -0.769531 2.40625 -0.71875 2.8125 -0.71875 C 3.394531 -0.71875 3.816406 -0.8125 4.078125 -1 C 4.347656 -1.1875 4.484375 -1.441406 4.484375 -1.765625 C 4.484375 -1.953125 4.425781 -2.117188 4.3125 -2.265625 C 4.207031 -2.410156 4.03125 -2.546875 3.78125 -2.671875 C 3.539062 -2.804688 3.203125 -2.957031 2.765625 -3.125 C 2.328125 -3.289062 1.953125 -3.453125 1.640625 -3.609375 C 1.328125 -3.773438 1.082031 -3.972656 0.90625 -4.203125 C 0.738281 -4.441406 0.65625 -4.75 0.65625 -5.125 C 0.65625 -5.695312 0.882812 -6.132812 1.34375 -6.4375 C 1.8125 -6.75 2.421875 -6.90625 3.171875 -6.90625 C 3.585938 -6.90625 3.972656 -6.863281 4.328125 -6.78125 C 4.679688 -6.707031 5.015625 -6.601562 5.328125 -6.46875 L 4.984375 -5.640625 C 4.703125 -5.765625 4.398438 -5.867188 4.078125 -5.953125 C 3.765625 -6.035156 3.441406 -6.078125 3.109375 -6.078125 C 2.628906 -6.078125 2.265625 -5.992188 2.015625 -5.828125 C 1.765625 -5.671875 1.640625 -5.457031 1.640625 -5.1875 C 1.640625 -4.976562 1.695312 -4.804688 1.8125 -4.671875 C 1.925781 -4.535156 2.113281 -4.40625 2.375 -4.28125 C 2.632812 -4.164062 2.976562 -4.023438 3.40625 -3.859375 C 3.832031 -3.703125 4.195312 -3.539062 4.5 -3.375 C 4.8125 -3.207031 5.050781 -3.003906 5.21875 -2.765625 C 5.382812 -2.535156 5.46875 -2.234375 5.46875 -1.859375 Z M 5.46875 -1.859375 "/></g></g></g></svg>